<svg xmlns="http://www.w3.org/2000/svg" width="175.265" height="69.151" viewBox="0 0 175.265 69.151"><defs><style>.a{fill:#c6383f;}.b{fill:#2b3570;}</style></defs><g transform="translate(-211.26 -223.99)"><path class="a" d="M373.581,287.73h2.953l-1.69,12.069h-2.913Zm7.342,12.069h3.011l.68-4.918h3.371l.369-2.859H385l.2-1.423h3.34l.374-2.873h-6.346ZM393,290.611h2.424l-1.254,9.188h2.984l1.254-9.188h2.335l.351-2.882h-7.72Zm22.351,9.188H412.4l-.591-2.379h-3.82l-1.272,2.379h-3.269l6.519-12.069h2.384Zm-4.767-7.244-1.072,2h1.556ZM290.8,257.948a13.09,13.09,0,0,1,5.256,1.908L306.72,235.98Z" transform="translate(-44.169 -6.658)"/><path class="b" d="M250.389,254.212a11.9,11.9,0,0,0-5.919-1.454,12.7,12.7,0,0,0-9.414,3.985,13.4,13.4,0,0,0-3.9,9.739,10.75,10.75,0,0,0,3.117,8.076q3.115,3.042,8.525,3.042a14.766,14.766,0,0,0,6.288-1.312,11.843,11.843,0,0,0,4.549-3.566l-5.1-2.646a8.574,8.574,0,0,1-5.777,2.179,5.871,5.871,0,0,1-4.225-1.459,5.443,5.443,0,0,1-1.619-3.927h18.846a15.255,15.255,0,0,0,.218-2.388,12.49,12.49,0,0,0-1.5-6.035A10.361,10.361,0,0,0,250.389,254.212Zm-12.67,8.4a7.127,7.127,0,0,1,2.606-3.255,6.758,6.758,0,0,1,3.842-1.152,5.729,5.729,0,0,1,5.839,4.407Zm45.742-9.859a3.707,3.707,0,0,1,1.628.414l-2.121,5.274a3.208,3.208,0,0,0-.969-.236,3.725,3.725,0,0,0-3.028,1.966q-1.334,1.968-2.1,7.938l-1.147,8.881h-5.826l3.229-23.627h5.172l-.414,3.215Q280.209,252.753,283.462,252.758Zm18.522.6h5.741l-1.694,12.705a18.256,18.256,0,0,1-1.97,6.653,9.544,9.544,0,0,1-3.669,3.615,10.967,10.967,0,0,1-5.376,1.259,9.484,9.484,0,0,1-6.924-2.508,8.666,8.666,0,0,1-2.57-6.484,43.777,43.777,0,0,1,.569-6.252l1.316-8.987h5.737l-1.65,12.074a25.592,25.592,0,0,0-.262,3,3.536,3.536,0,0,0,1.085,2.628,3.862,3.862,0,0,0,2.828,1.063,4.354,4.354,0,0,0,3.446-1.37q1.207-1.367,1.77-5.559Zm13.5,8.832a8.017,8.017,0,0,0-1.085,4.033,5.794,5.794,0,0,0,1.717,4.38,6.515,6.515,0,0,0,4.709,1.65,7.64,7.64,0,0,0,6.359-2.8l4.558,3.22a13.375,13.375,0,0,1-4.812,3.611,15.416,15.416,0,0,1-6.421,1.307q-5.517,0-8.7-3.042a10.6,10.6,0,0,1-3.184-8.036,13.6,13.6,0,0,1,14.053-13.768q6.971,0,10.406,5.492l-4.905,2.668a6.751,6.751,0,0,0-5.6-2.646,8.513,8.513,0,0,0-4.189,1.009A7.476,7.476,0,0,0,315.48,262.194Zm30.711,1.7,10.446,13.092h-6.951L340.4,265.414l-1.588,11.576h-5.692l4.474-32.743h5.714l-2.37,17.272,9.25-8.156h7.947Zm26.482,2.682a6.916,6.916,0,0,1,1.054,3.7,7.252,7.252,0,0,1-2.161,4.972A8.086,8.086,0,0,1,365.3,277.6a9.639,9.639,0,0,1-4.309-.956,16.108,16.108,0,0,1-4.331-3.5l3.584-4.171q2.435,3.215,5.319,3.215a2.845,2.845,0,0,0,1.837-.556,1.639,1.639,0,0,0,.685-1.312,2,2,0,0,0-.52-1.25,17.7,17.7,0,0,0-2.846-2.29A17.081,17.081,0,0,1,361,263.506a6.611,6.611,0,0,1-1.432-4.038,6,6,0,0,1,2.246-4.843,8.049,8.049,0,0,1,5.31-1.868,8.677,8.677,0,0,1,4.082,1.018,8.92,8.92,0,0,1,3.215,2.886l-2.766,4.429a7.976,7.976,0,0,0-2.241-2.335,4.147,4.147,0,0,0-2.2-.747,2.078,2.078,0,0,0-1.33.436,1.234,1.234,0,0,0-.543.978,1.633,1.633,0,0,0,.436,1.041,16.417,16.417,0,0,0,2.5,2.019A16.658,16.658,0,0,1,372.673,266.579Zm-98.986-15.845H267.03l-3.589,26.251h-5.955l3.589-26.251H254.89l2.4-5.688h17.094Zm-61.386,19.2-.147.027a37.879,37.879,0,0,1,.569-18.606l1.872.872a31.87,31.87,0,0,0-2.295,17.708Zm2.855-18.922a31.954,31.954,0,0,1,12.056-13.2l-2.735-4.741a37.847,37.847,0,0,0-11.358,16.988Zm32-17.628a31.555,31.555,0,0,1,10.326,2.939l5.078-7,.952.956-3.175,7.609a32.281,32.281,0,0,1,3.349,2.375l7.6-9.027a37.59,37.59,0,0,0-22.239-7.244c-.36,0-.712.018-1.067.027Zm-21.639-1.17,2.851,4.936a31.644,31.644,0,0,1,15.355-3.949c.707,0,1.41.027,2.1.071l.8-9.2A37.545,37.545,0,0,0,225.517,232.217Zm153.6,39.369h2.295v.778h-.756v3.375h-.8v-3.375h-.738Zm3.242,0h.769l.961,2.895.969-2.895h.769l.7,4.153h-.765l-.445-2.624-.881,2.624h-.7l-.876-2.624-.458,2.624h-.769Z" transform="translate(0 0)"/></g></svg>
