<svg xmlns="http://www.w3.org/2000/svg" id="how-it-works2" xmlns:xlink="http://www.w3.org/1999/xlink" width="1084" height="820"
	 viewBox="0 0 1084 820">
	<defs>
		<style>

		</style>
		<filter id="a2" x="0" y="0" width="1084" height="820" filterUnits="userSpaceOnUse">
			<feOffset dy="10" input="SourceAlpha"/>
			<feGaussianBlur stdDeviation="25" result="b"/>
			<feFlood flood-opacity="0.302"/>
			<feComposite operator="in" in2="b"/>
			<feComposite in="SourceGraphic"/>
		</filter>
		<clipPath id="c">
			<rect class="a" width="880" height="620" rx="25" transform="translate(707 2650)"/>
		</clipPath>
	</defs>
	<g transform="translate(-5500 -6502)">
		<g class="t" transform="matrix(1, 0, 0, 1, 5500, 6502)">
			<g class="b" transform="translate(75 65)">
				<rect class="r" width="934" height="670" rx="47"/>
				<rect class="s" x="0.5" y="0.5" width="933" height="669" rx="46.5"/>
			</g>
		</g>
		<g class="c" transform="translate(5577 6569)">
			<rect class="r" width="930" height="666" rx="45"/>
			<rect class="s" x="0.5" y="0.5" width="929" height="665" rx="44.5"/>
		</g>
		<g class="d" transform="translate(4895 3942)">
			<g transform="translate(-9711 15124)">
				<rect class="a" width="890" height="510" transform="translate(10413 -12364)"/>
				<g transform="translate(-66 205)">
					<rect class="e" width="890" height="80" transform="translate(10479 -12679)"/>
					<rect class="e" width="890" height="30" transform="translate(10479 -12599)"/>
					<rect class="a" width="890" height="1" transform="translate(10479 -12600)"/>
					<g transform="translate(10327.863 -12881.216)">
						<path class="f"
							  d="M334.166,263.09h1.547l-.885,6.323H333.3Zm3.846,6.323h1.577l.356-2.577h1.766l.193-1.5h-1.759l.107-.745H342l.2-1.5h-3.324Zm6.327-4.813h1.27l-.657,4.813h1.563l.657-4.813H348.4l.184-1.51h-4.044Zm11.709,4.813H354.5l-.31-1.246h-2l-.666,1.246h-1.712l3.415-6.323h1.249Zm-2.5-3.795-.561,1.048h.815ZM290.8,247.488a6.857,6.857,0,0,1,2.754,1l5.586-12.508Z"
							  transform="translate(-61.01 -9.197)"/>
						<path class="g"
							  d="M231.758,239.822a6.235,6.235,0,0,0-3.1-.762,6.652,6.652,0,0,0-4.932,2.087,7.019,7.019,0,0,0-2.041,5.1,5.632,5.632,0,0,0,1.633,4.231,6.118,6.118,0,0,0,4.466,1.593,7.735,7.735,0,0,0,3.294-.687,6.2,6.2,0,0,0,2.383-1.868l-2.672-1.386a4.492,4.492,0,0,1-3.026,1.142,3.075,3.075,0,0,1-2.213-.764,2.851,2.851,0,0,1-.848-2.057h9.873a7.991,7.991,0,0,0,.114-1.251,6.543,6.543,0,0,0-.785-3.161A5.428,5.428,0,0,0,231.758,239.822Zm-6.637,4.4a3.734,3.734,0,0,1,1.365-1.705,3.54,3.54,0,0,1,2.013-.6,3,3,0,0,1,3.059,2.309Zm23.963-5.165a1.942,1.942,0,0,1,.853.217l-1.111,2.763a1.681,1.681,0,0,0-.508-.123,1.951,1.951,0,0,0-1.586,1.03,10.807,10.807,0,0,0-1.1,4.158l-.6,4.652h-3.052l1.691-12.377h2.709l-.217,1.684A3.467,3.467,0,0,1,249.084,239.06Zm9.7.317h3.008l-.888,6.656a9.563,9.563,0,0,1-1.032,3.485,5,5,0,0,1-1.922,1.894,5.745,5.745,0,0,1-2.817.659,4.968,4.968,0,0,1-3.627-1.314,4.539,4.539,0,0,1-1.347-3.4,22.931,22.931,0,0,1,.3-3.275l.69-4.708h3.005l-.864,6.325a13.411,13.411,0,0,0-.137,1.57,1.852,1.852,0,0,0,.568,1.377,2.023,2.023,0,0,0,1.482.557,2.281,2.281,0,0,0,1.805-.718,5.883,5.883,0,0,0,.927-2.912Zm7.07,4.627a4.2,4.2,0,0,0-.568,2.113,3.035,3.035,0,0,0,.9,2.295,3.413,3.413,0,0,0,2.467.864,4,4,0,0,0,3.331-1.465l2.388,1.687a7.007,7.007,0,0,1-2.521,1.892,8.076,8.076,0,0,1-3.364.685,6.331,6.331,0,0,1-4.559-1.593,5.555,5.555,0,0,1-1.668-4.21,7.126,7.126,0,0,1,7.362-7.213,6,6,0,0,1,5.451,2.877l-2.57,1.4a3.537,3.537,0,0,0-2.933-1.386,4.459,4.459,0,0,0-2.194.529A3.917,3.917,0,0,0,265.857,244Zm16.088.892,5.472,6.858h-3.641l-4.864-6.064-.832,6.064H275.1l2.344-17.153h2.994l-1.242,9.048,4.846-4.273H288.2Zm13.873,1.4a3.623,3.623,0,0,1,.552,1.941,3.8,3.8,0,0,1-1.132,2.6,4.236,4.236,0,0,1-3.282,1.228,5.05,5.05,0,0,1-2.257-.5,8.438,8.438,0,0,1-2.269-1.831l1.878-2.185a3.552,3.552,0,0,0,2.786,1.684,1.49,1.49,0,0,0,.962-.291.859.859,0,0,0,.359-.687,1.05,1.05,0,0,0-.273-.655,9.276,9.276,0,0,0-1.491-1.2,8.949,8.949,0,0,1-1.945-1.717,3.464,3.464,0,0,1-.75-2.115,3.143,3.143,0,0,1,1.176-2.537,4.217,4.217,0,0,1,2.782-.978,4.546,4.546,0,0,1,2.139.533,4.673,4.673,0,0,1,1.684,1.512l-1.449,2.32a4.178,4.178,0,0,0-1.174-1.223,2.172,2.172,0,0,0-1.151-.391,1.089,1.089,0,0,0-.7.228.647.647,0,0,0-.284.513.855.855,0,0,0,.228.545,8.6,8.6,0,0,0,1.312,1.058A8.727,8.727,0,0,1,295.819,246.3ZM243.963,238h-3.487l-1.88,13.752h-3.119L237.357,238h-3.241l1.256-2.98h8.955ZM211.805,248.06l-.077.014a19.844,19.844,0,0,1,.3-9.747l.981.457a16.7,16.7,0,0,0-1.2,9.277Zm1.5-9.913a16.739,16.739,0,0,1,6.316-6.914l-1.433-2.483a19.827,19.827,0,0,0-5.95,8.9Zm16.764-9.235a16.531,16.531,0,0,1,5.409,1.54l2.66-3.669.5.5-1.663,3.986a16.914,16.914,0,0,1,1.754,1.244l3.981-4.729a19.692,19.692,0,0,0-11.651-3.795c-.189,0-.373.009-.559.014Zm-11.336-.613,1.493,2.586a16.577,16.577,0,0,1,8.044-2.069c.37,0,.738.014,1.1.037l.422-4.82A19.669,19.669,0,0,0,218.729,228.3Zm80.466,20.624h1.2v.408H300V251.1h-.419v-1.768h-.387Zm1.7,0h.4l.5,1.517.508-1.517h.4l.366,2.176h-.4l-.233-1.374-.461,1.374h-.366l-.459-1.374-.24,1.374h-.4Z"
							  transform="translate(0 0)"/>
					</g>
					<text class="h" transform="translate(10844 -12623)">
						<tspan x="0" y="0">ABC Trucking Ltd.</tspan>
					</text>
					<g transform="translate(12 -168)">
						<text class="i" transform="translate(10527 -12413)">
							<tspan x="0" y="0">Home</tspan>
						</text>
						<text class="i" transform="translate(10574 -12413)">
							<tspan x="0" y="0">Equipment</tspan>
						</text>
						<text class="j" transform="translate(10643 -12413)">
							<tspan x="0" y="0">Mileages</tspan>
						</text>
						<text class="i" transform="translate(10702 -12413)">
							<tspan x="0" y="0">Fuel Purchases</tspan>
						</text>
						<text class="i" transform="translate(10788 -12413)">
							<tspan x="0" y="0">IFTA Rates</tspan>
						</text>
						<text class="i" transform="translate(10854 -12413)">
							<tspan x="0" y="0">Fuel Tax Report</tspan>
						</text>
						<text class="i" transform="translate(10942 -12413)">
							<tspan x="0" y="0">Fuel Tax History Report</tspan>
						</text>
						<text class="i" transform="translate(11062 -12413)">
							<tspan x="0" y="0">Weight Distance Tax Report</tspan>
						</text>
						<text class="i" transform="translate(11202 -12413)">
							<tspan x="0" y="0">Carbon Charge Report</tspan>
						</text>
					</g>
					<rect class="f" width="38" height="4" transform="translate(10655 -12571)"/>
					<text class="k" transform="translate(11133 -12663)">
						<tspan x="0" y="0">Welcome ABCtruck</tspan>
						<tspan class="l" y="0"
							   xml:space="preserve">     |     Account     |     Help     |     Logout</tspan>
					</text>
				</g>
				<g transform="translate(-99 75)">
					<text class="m" transform="translate(10572 -12413)">
						<tspan x="0" y="0" xml:space="preserve">Manual Mileage     |     Import Mileages     |     Import Ping Locations     |     Delete Import     |     Trip Milages     |     Customize Columns </tspan>
					</text>
				</g>
				<g transform="translate(-84.27 -0.001)">
					<g transform="translate(10558.388 -12316)">
						<rect class="g" width="108" height="38" transform="translate(-0.117 0.001)"/>
						<rect class="g" width="109" height="38" transform="translate(109.883 0.001)"/>
						<rect class="g" width="109" height="38" transform="translate(219.883 0.001)"/>
						<rect class="g" width="109" height="38" transform="translate(329.883 0.001)"/>
						<rect class="g" width="109" height="38" transform="translate(439.883 0.001)"/>
						<rect class="g" width="109" height="38" transform="translate(549.883 0.001)"/>
						<rect class="g" width="108" height="38" transform="translate(660.883 0.001)"/>
						<text class="n" transform="translate(12.883 22.001)">
							<tspan x="0" y="0">Equipment</tspan>
						</text>
						<text class="n" transform="translate(122.883 22.001)">
							<tspan x="0" y="0">Date</tspan>
						</text>
						<text class="n" transform="translate(232.883 22.001)">
							<tspan x="0" y="0">State/Prov</tspan>
						</text>
						<text class="n" transform="translate(341.883 22.001)">
							<tspan x="0" y="0">Start Odometer</tspan>
						</text>
						<text class="n" transform="translate(452.883 22.001)">
							<tspan x="0" y="0">End Odometer</tspan>
						</text>
						<text class="n" transform="translate(562.883 22.001)">
							<tspan x="0" y="0">Mileage</tspan>
						</text>
						<text class="n" transform="translate(672.883 22.001)">
							<tspan x="0" y="0">Mileage</tspan>
						</text>
					</g>
					<g transform="translate(10558.388 -12276.498)">
						<g transform="translate(0 0)">
							<rect class="e" width="108" height="26" transform="translate(-0.117 0.499)"/>
							<rect class="e" width="109" height="26" transform="translate(109.883 0.499)"/>
							<rect class="e" width="109" height="26" transform="translate(219.883 0.499)"/>
							<rect class="e" width="109" height="26" transform="translate(329.883 0.499)"/>
							<rect class="e" width="109" height="26" transform="translate(439.883 0.499)"/>
							<rect class="e" width="109" height="26" transform="translate(549.883 0.499)"/>
							<rect class="e" width="108" height="26" transform="translate(660.883 0.499)"/>
							<text class="o" transform="translate(12.883 16.499)">
								<tspan x="0" y="0">V101</tspan>
							</text>
							<text class="o" transform="translate(122.883 16.499)">
								<tspan x="0" y="0">2020-05-16</tspan>
							</text>
							<text class="p" transform="translate(232.883 17.499)">
								<tspan x="0" y="0">AB</tspan>
							</text>
							<text class="o" transform="translate(341.883 16.499)">
								<tspan x="0" y="0">42112</tspan>
							</text>
							<text class="o" transform="translate(452.883 16.499)">
								<tspan x="0" y="0">42661</tspan>
							</text>
							<text class="o" transform="translate(562.883 16.499)">
								<tspan x="0" y="0">549 miles</tspan>
							</text>
							<text class="o" transform="translate(672.883 16.499)">
								<tspan x="0" y="0">0 miles</tspan>
							</text>
						</g>
						<g transform="translate(0 27.347)">
							<rect class="a" width="108" height="25" transform="translate(-0.117 0.152)"/>
							<rect class="a" width="109" height="25" transform="translate(109.883 0.152)"/>
							<rect class="a" width="109" height="25" transform="translate(219.883 0.152)"/>
							<rect class="a" width="109" height="25" transform="translate(329.883 0.152)"/>
							<rect class="a" width="109" height="25" transform="translate(439.883 0.152)"/>
							<rect class="a" width="109" height="25" transform="translate(549.883 0.152)"/>
							<rect class="a" width="108" height="25" transform="translate(660.883 0.152)"/>
							<text class="o" transform="translate(12.883 15.152)">
								<tspan x="0" y="0">V101</tspan>
							</text>
							<text class="o" transform="translate(122.883 15.152)">
								<tspan x="0" y="0">2020-05-16</tspan>
							</text>
							<text class="p" transform="translate(232.883 16.152)">
								<tspan x="0" y="0">AB</tspan>
							</text>
							<text class="o" transform="translate(341.883 15.152)">
								<tspan x="0" y="0">42112</tspan>
							</text>
							<text class="o" transform="translate(452.883 15.152)">
								<tspan x="0" y="0">42661</tspan>
							</text>
							<text class="o" transform="translate(562.883 15.152)">
								<tspan x="0" y="0">549 miles</tspan>
							</text>
							<text class="o" transform="translate(672.883 15.152)">
								<tspan x="0" y="0">0 miles</tspan>
							</text>
						</g>
					</g>
					<g transform="translate(10558.388 -12221.804)">
						<g transform="translate(0 0)">
							<rect class="e" width="108" height="25" transform="translate(-0.117 -0.195)"/>
							<rect class="e" width="109" height="25" transform="translate(109.883 -0.195)"/>
							<rect class="e" width="109" height="25" transform="translate(219.883 -0.195)"/>
							<rect class="e" width="109" height="25" transform="translate(329.883 -0.195)"/>
							<rect class="e" width="109" height="25" transform="translate(439.883 -0.195)"/>
							<rect class="e" width="109" height="25" transform="translate(549.883 -0.195)"/>
							<rect class="e" width="108" height="25" transform="translate(660.883 -0.195)"/>
							<text class="o" transform="translate(12.883 14.805)">
								<tspan x="0" y="0">V101</tspan>
							</text>
							<text class="o" transform="translate(122.883 14.805)">
								<tspan x="0" y="0">2020-05-16</tspan>
							</text>
							<text class="p" transform="translate(232.883 15.805)">
								<tspan x="0" y="0">AB</tspan>
							</text>
							<text class="o" transform="translate(341.883 14.805)">
								<tspan x="0" y="0">42112</tspan>
							</text>
							<text class="o" transform="translate(452.883 14.805)">
								<tspan x="0" y="0">42661</tspan>
							</text>
							<text class="o" transform="translate(562.883 14.805)">
								<tspan x="0" y="0">549 miles</tspan>
							</text>
							<text class="o" transform="translate(672.883 14.805)">
								<tspan x="0" y="0">0 miles</tspan>
							</text>
						</g>
						<g transform="translate(0 26.334)">
							<rect class="a" width="108" height="25" transform="translate(-0.117 0.47)"/>
							<rect class="a" width="109" height="25" transform="translate(109.883 0.47)"/>
							<rect class="a" width="109" height="25" transform="translate(219.883 0.47)"/>
							<rect class="a" width="109" height="25" transform="translate(329.883 0.47)"/>
							<rect class="a" width="109" height="25" transform="translate(439.883 0.47)"/>
							<rect class="a" width="109" height="25" transform="translate(549.883 0.47)"/>
							<rect class="a" width="108" height="25" transform="translate(660.883 0.47)"/>
							<text class="o" transform="translate(12.883 16.47)">
								<tspan x="0" y="0">V101</tspan>
							</text>
							<text class="o" transform="translate(122.883 16.47)">
								<tspan x="0" y="0">2020-05-16</tspan>
							</text>
							<text class="p" transform="translate(232.883 17.47)">
								<tspan x="0" y="0">AB</tspan>
							</text>
							<text class="o" transform="translate(341.883 16.47)">
								<tspan x="0" y="0">42112</tspan>
							</text>
							<text class="o" transform="translate(452.883 16.47)">
								<tspan x="0" y="0">42661</tspan>
							</text>
							<text class="o" transform="translate(562.883 16.47)">
								<tspan x="0" y="0">549 miles</tspan>
							</text>
							<text class="o" transform="translate(672.883 16.47)">
								<tspan x="0" y="0">0 miles</tspan>
							</text>
						</g>
					</g>
					<g transform="translate(10558.388 -12168.122)">
						<g transform="translate(0 0)">
							<rect class="e" width="108" height="24" transform="translate(-0.117 0.123)"/>
							<rect class="e" width="109" height="24" transform="translate(109.883 0.123)"/>
							<rect class="e" width="109" height="24" transform="translate(219.883 0.123)"/>
							<rect class="e" width="109" height="24" transform="translate(329.883 0.123)"/>
							<rect class="e" width="109" height="24" transform="translate(439.883 0.123)"/>
							<rect class="e" width="109" height="24" transform="translate(549.883 0.123)"/>
							<rect class="e" width="108" height="24" transform="translate(660.883 0.123)"/>
							<text class="o" transform="translate(12.883 15.123)">
								<tspan x="0" y="0">V101</tspan>
							</text>
							<text class="o" transform="translate(122.883 15.123)">
								<tspan x="0" y="0">2020-05-16</tspan>
							</text>
							<text class="p" transform="translate(232.883 16.123)">
								<tspan x="0" y="0">AB</tspan>
							</text>
							<text class="o" transform="translate(341.883 15.123)">
								<tspan x="0" y="0">42112</tspan>
							</text>
							<text class="o" transform="translate(452.883 15.123)">
								<tspan x="0" y="0">42661</tspan>
							</text>
							<text class="o" transform="translate(562.883 15.123)">
								<tspan x="0" y="0">549 miles</tspan>
							</text>
							<text class="o" transform="translate(672.883 15.123)">
								<tspan x="0" y="0">0 miles</tspan>
							</text>
						</g>
						<g transform="translate(0 25.322)">
							<rect class="a" width="108" height="27" transform="translate(-0.117 -0.198)"/>
							<rect class="a" width="109" height="27" transform="translate(109.883 -0.198)"/>
							<rect class="a" width="109" height="27" transform="translate(219.883 -0.198)"/>
							<rect class="a" width="109" height="27" transform="translate(329.883 -0.198)"/>
							<rect class="a" width="109" height="27" transform="translate(439.883 -0.198)"/>
							<rect class="a" width="109" height="27" transform="translate(549.883 -0.198)"/>
							<rect class="a" width="108" height="27" transform="translate(660.883 -0.198)"/>
							<text class="o" transform="translate(12.883 16.802)">
								<tspan x="0" y="0">V101</tspan>
							</text>
							<text class="o" transform="translate(122.883 16.802)">
								<tspan x="0" y="0">2020-05-16</tspan>
							</text>
							<text class="p" transform="translate(232.883 17.802)">
								<tspan x="0" y="0">AB</tspan>
							</text>
							<text class="o" transform="translate(341.883 16.802)">
								<tspan x="0" y="0">42112</tspan>
							</text>
							<text class="o" transform="translate(452.883 16.802)">
								<tspan x="0" y="0">42661</tspan>
							</text>
							<text class="o" transform="translate(562.883 16.802)">
								<tspan x="0" y="0">549 miles</tspan>
							</text>
							<text class="o" transform="translate(672.883 16.802)">
								<tspan x="0" y="0">0 miles</tspan>
							</text>
						</g>
					</g>
					<g transform="translate(10558.388 -12115.453)">
						<g transform="translate(0 0)">
							<rect class="e" width="108" height="26" transform="translate(-0.117 0.454)"/>
							<rect class="e" width="109" height="26" transform="translate(109.883 0.454)"/>
							<rect class="e" width="109" height="26" transform="translate(219.883 0.454)"/>
							<rect class="e" width="109" height="26" transform="translate(329.883 0.454)"/>
							<rect class="e" width="109" height="26" transform="translate(439.883 0.454)"/>
							<rect class="e" width="109" height="26" transform="translate(549.883 0.454)"/>
							<rect class="e" width="108" height="26" transform="translate(660.883 0.454)"/>
							<text class="o" transform="translate(12.883 16.454)">
								<tspan x="0" y="0">V101</tspan>
							</text>
							<text class="o" transform="translate(122.883 16.454)">
								<tspan x="0" y="0">2020-05-16</tspan>
							</text>
							<text class="p" transform="translate(232.883 17.454)">
								<tspan x="0" y="0">AB</tspan>
							</text>
							<text class="o" transform="translate(341.883 16.454)">
								<tspan x="0" y="0">42112</tspan>
							</text>
							<text class="o" transform="translate(452.883 16.454)">
								<tspan x="0" y="0">42661</tspan>
							</text>
							<text class="o" transform="translate(562.883 16.454)">
								<tspan x="0" y="0">549 miles</tspan>
							</text>
							<text class="o" transform="translate(672.883 16.454)">
								<tspan x="0" y="0">0 miles</tspan>
							</text>
						</g>
						<g transform="translate(0 27.347)">
							<rect class="a" width="108" height="25" transform="translate(-0.117 0.107)"/>
							<rect class="a" width="109" height="25" transform="translate(109.883 0.107)"/>
							<rect class="a" width="109" height="25" transform="translate(219.883 0.107)"/>
							<rect class="a" width="109" height="25" transform="translate(329.883 0.107)"/>
							<rect class="a" width="109" height="25" transform="translate(439.883 0.107)"/>
							<rect class="a" width="109" height="25" transform="translate(549.883 0.107)"/>
							<rect class="a" width="108" height="25" transform="translate(660.883 0.107)"/>
							<text class="o" transform="translate(12.883 15.107)">
								<tspan x="0" y="0">V101</tspan>
							</text>
							<text class="o" transform="translate(122.883 15.107)">
								<tspan x="0" y="0">2020-05-16</tspan>
							</text>
							<text class="p" transform="translate(232.883 16.107)">
								<tspan x="0" y="0">AB</tspan>
							</text>
							<text class="o" transform="translate(341.883 15.107)">
								<tspan x="0" y="0">42112</tspan>
							</text>
							<text class="o" transform="translate(452.883 15.107)">
								<tspan x="0" y="0">42661</tspan>
							</text>
							<text class="o" transform="translate(562.883 15.107)">
								<tspan x="0" y="0">549 miles</tspan>
							</text>
							<text class="o" transform="translate(672.883 15.107)">
								<tspan x="0" y="0">0 miles</tspan>
							</text>
						</g>
					</g>
					<g transform="translate(10558.388 -12061.771)">
						<g transform="translate(0 0)">
							<rect class="e" width="108" height="27" transform="translate(-0.117 -0.228)"/>
							<rect class="e" width="109" height="27" transform="translate(109.883 -0.228)"/>
							<rect class="e" width="109" height="27" transform="translate(219.883 -0.228)"/>
							<rect class="e" width="109" height="27" transform="translate(329.883 -0.228)"/>
							<rect class="e" width="109" height="27" transform="translate(439.883 -0.228)"/>
							<rect class="e" width="109" height="27" transform="translate(549.883 -0.228)"/>
							<rect class="e" width="108" height="27" transform="translate(660.883 -0.228)"/>
							<text class="o" transform="translate(12.883 15.772)">
								<tspan x="0" y="0">V101</tspan>
							</text>
							<text class="o" transform="translate(122.883 15.772)">
								<tspan x="0" y="0">2020-05-16</tspan>
							</text>
							<text class="p" transform="translate(232.883 16.772)">
								<tspan x="0" y="0">AB</tspan>
							</text>
							<text class="o" transform="translate(341.883 15.772)">
								<tspan x="0" y="0">42112</tspan>
							</text>
							<text class="o" transform="translate(452.883 15.772)">
								<tspan x="0" y="0">42661</tspan>
							</text>
							<text class="o" transform="translate(562.883 15.772)">
								<tspan x="0" y="0">549 miles</tspan>
							</text>
							<text class="o" transform="translate(672.883 15.772)">
								<tspan x="0" y="0">0 miles</tspan>
							</text>
						</g>
						<g transform="translate(0 27.347)">
							<rect class="a" width="108" height="26" transform="translate(-0.117 0.424)"/>
							<rect class="a" width="109" height="26" transform="translate(109.883 0.424)"/>
							<rect class="a" width="109" height="26" transform="translate(219.883 0.424)"/>
							<rect class="a" width="109" height="26" transform="translate(329.883 0.424)"/>
							<rect class="a" width="109" height="26" transform="translate(439.883 0.424)"/>
							<rect class="a" width="109" height="26" transform="translate(549.883 0.424)"/>
							<rect class="a" width="108" height="26" transform="translate(660.883 0.424)"/>
							<text class="o" transform="translate(12.883 15.424)">
								<tspan x="0" y="0">V101</tspan>
							</text>
							<text class="o" transform="translate(122.883 15.424)">
								<tspan x="0" y="0">2020-05-16</tspan>
							</text>
							<text class="p" transform="translate(232.883 16.424)">
								<tspan x="0" y="0">AB</tspan>
							</text>
							<text class="o" transform="translate(341.883 15.424)">
								<tspan x="0" y="0">42112</tspan>
							</text>
							<text class="o" transform="translate(452.883 15.424)">
								<tspan x="0" y="0">42661</tspan>
							</text>
							<text class="o" transform="translate(562.883 15.424)">
								<tspan x="0" y="0">549 miles</tspan>
							</text>
							<text class="o" transform="translate(672.883 15.424)">
								<tspan x="0" y="0">0 miles</tspan>
							</text>
						</g>
					</g>
					<g transform="translate(10558.388 -12007.076)">
						<g transform="translate(0 0)">
							<rect class="e" width="108" height="25" transform="translate(-0.117 0.077)"/>
							<rect class="e" width="109" height="25" transform="translate(109.883 0.077)"/>
							<rect class="e" width="109" height="25" transform="translate(219.883 0.077)"/>
							<rect class="e" width="109" height="25" transform="translate(329.883 0.077)"/>
							<rect class="e" width="109" height="25" transform="translate(439.883 0.077)"/>
							<rect class="e" width="109" height="25" transform="translate(549.883 0.077)"/>
							<rect class="e" width="108" height="25" transform="translate(660.883 0.077)"/>
							<text class="o" transform="translate(12.883 15.077)">
								<tspan x="0" y="0">V101</tspan>
							</text>
							<text class="o" transform="translate(122.883 15.077)">
								<tspan x="0" y="0">2020-05-16</tspan>
							</text>
							<text class="p" transform="translate(232.883 16.077)">
								<tspan x="0" y="0">AB</tspan>
							</text>
							<text class="o" transform="translate(341.883 15.077)">
								<tspan x="0" y="0">42112</tspan>
							</text>
							<text class="o" transform="translate(452.883 15.077)">
								<tspan x="0" y="0">42661</tspan>
							</text>
							<text class="o" transform="translate(562.883 15.077)">
								<tspan x="0" y="0">549 miles</tspan>
							</text>
							<text class="o" transform="translate(672.883 15.077)">
								<tspan x="0" y="0">0 miles</tspan>
							</text>
						</g>
						<g transform="translate(0 26.334)">
							<rect class="a" width="108" height="27" transform="translate(-0.117 -0.257)"/>
							<rect class="a" width="109" height="27" transform="translate(109.883 -0.257)"/>
							<rect class="a" width="109" height="27" transform="translate(219.883 -0.257)"/>
							<rect class="a" width="109" height="27" transform="translate(329.883 -0.257)"/>
							<rect class="a" width="109" height="27" transform="translate(439.883 -0.257)"/>
							<rect class="a" width="109" height="27" transform="translate(549.883 -0.257)"/>
							<rect class="a" width="108" height="27" transform="translate(660.883 -0.257)"/>
							<text class="o" transform="translate(12.883 15.743)">
								<tspan x="0" y="0">V101</tspan>
							</text>
							<text class="o" transform="translate(122.883 15.743)">
								<tspan x="0" y="0">2020-05-16</tspan>
							</text>
							<text class="p" transform="translate(232.883 16.743)">
								<tspan x="0" y="0">AB</tspan>
							</text>
							<text class="o" transform="translate(341.883 15.743)">
								<tspan x="0" y="0">42112</tspan>
							</text>
							<text class="o" transform="translate(452.883 15.743)">
								<tspan x="0" y="0">42661</tspan>
							</text>
							<text class="o" transform="translate(562.883 15.743)">
								<tspan x="0" y="0">549 miles</tspan>
							</text>
							<text class="o" transform="translate(672.883 15.743)">
								<tspan x="0" y="0">0 miles</tspan>
							</text>
						</g>
					</g>
					<g transform="translate(10558.388 -11953.395)">
						<g transform="translate(0 0)">
							<rect class="e" width="108" height="25" transform="translate(-0.117 0.396)"/>
							<rect class="e" width="109" height="25" transform="translate(109.883 0.396)"/>
							<rect class="e" width="109" height="25" transform="translate(219.883 0.396)"/>
							<rect class="e" width="109" height="25" transform="translate(329.883 0.396)"/>
							<rect class="e" width="109" height="25" transform="translate(439.883 0.396)"/>
							<rect class="e" width="109" height="25" transform="translate(549.883 0.396)"/>
							<rect class="e" width="108" height="25" transform="translate(660.883 0.396)"/>
							<text class="o" transform="translate(12.883 15.396)">
								<tspan x="0" y="0">V101</tspan>
							</text>
							<text class="o" transform="translate(122.883 15.396)">
								<tspan x="0" y="0">2020-05-16</tspan>
							</text>
							<text class="p" transform="translate(232.883 16.396)">
								<tspan x="0" y="0">AB</tspan>
							</text>
							<text class="o" transform="translate(341.883 15.396)">
								<tspan x="0" y="0">42112</tspan>
							</text>
							<text class="o" transform="translate(452.883 15.396)">
								<tspan x="0" y="0">42661</tspan>
							</text>
							<text class="o" transform="translate(562.883 15.396)">
								<tspan x="0" y="0">549 miles</tspan>
							</text>
							<text class="o" transform="translate(672.883 15.396)">
								<tspan x="0" y="0">0 miles</tspan>
							</text>
						</g>
						<g transform="translate(0 26.334)">
							<rect class="a" width="108" height="26" transform="translate(-0.117 0.061)"/>
							<rect class="a" width="109" height="26" transform="translate(109.883 0.061)"/>
							<rect class="a" width="109" height="26" transform="translate(219.883 0.061)"/>
							<rect class="a" width="109" height="26" transform="translate(329.883 0.061)"/>
							<rect class="a" width="109" height="26" transform="translate(439.883 0.061)"/>
							<rect class="a" width="109" height="26" transform="translate(549.883 0.061)"/>
							<rect class="a" width="108" height="26" transform="translate(660.883 0.061)"/>
							<text class="o" transform="translate(12.883 16.061)">
								<tspan x="0" y="0">V101</tspan>
							</text>
							<text class="o" transform="translate(122.883 16.061)">
								<tspan x="0" y="0">2020-05-16</tspan>
							</text>
							<text class="p" transform="translate(232.883 17.061)">
								<tspan x="0" y="0">AB</tspan>
							</text>
							<text class="o" transform="translate(341.883 16.061)">
								<tspan x="0" y="0">42112</tspan>
							</text>
							<text class="o" transform="translate(452.883 16.061)">
								<tspan x="0" y="0">42661</tspan>
							</text>
							<text class="o" transform="translate(562.883 16.061)">
								<tspan x="0" y="0">549 miles</tspan>
							</text>
							<text class="o" transform="translate(672.883 16.061)">
								<tspan x="0" y="0">0 miles</tspan>
							</text>
						</g>
					</g>
					<g transform="translate(10558.388 -11899.712)">
						<g transform="translate(0 0)">
							<rect class="e" width="108" height="27" transform="translate(-0.117 -0.287)"/>
							<rect class="e" width="109" height="27" transform="translate(109.883 -0.287)"/>
							<rect class="e" width="109" height="27" transform="translate(219.883 -0.287)"/>
							<rect class="e" width="109" height="27" transform="translate(329.883 -0.287)"/>
							<rect class="e" width="109" height="27" transform="translate(439.883 -0.287)"/>
							<rect class="e" width="109" height="27" transform="translate(549.883 -0.287)"/>
							<rect class="e" width="108" height="27" transform="translate(660.883 -0.287)"/>
							<text class="o" transform="translate(12.883 15.713)">
								<tspan x="0" y="0">V101</tspan>
							</text>
							<text class="o" transform="translate(122.883 15.713)">
								<tspan x="0" y="0">2020-05-16</tspan>
							</text>
							<text class="p" transform="translate(232.883 16.713)">
								<tspan x="0" y="0">AB</tspan>
							</text>
							<text class="o" transform="translate(341.883 15.713)">
								<tspan x="0" y="0">42112</tspan>
							</text>
							<text class="o" transform="translate(452.883 15.713)">
								<tspan x="0" y="0">42661</tspan>
							</text>
							<text class="o" transform="translate(562.883 15.713)">
								<tspan x="0" y="0">549 miles</tspan>
							</text>
							<text class="o" transform="translate(672.883 15.713)">
								<tspan x="0" y="0">0 miles</tspan>
							</text>
						</g>
						<g transform="translate(0 27.347)">
							<rect class="a" width="108" height="24" transform="translate(-0.117 0.366)"/>
							<rect class="a" width="109" height="24" transform="translate(109.883 0.366)"/>
							<rect class="a" width="109" height="24" transform="translate(219.883 0.366)"/>
							<rect class="a" width="109" height="24" transform="translate(329.883 0.366)"/>
							<rect class="a" width="109" height="24" transform="translate(439.883 0.366)"/>
							<rect class="a" width="109" height="24" transform="translate(549.883 0.366)"/>
							<rect class="a" width="108" height="24" transform="translate(660.883 0.366)"/>
							<text class="o" transform="translate(12.883 15.366)">
								<tspan x="0" y="0">V101</tspan>
							</text>
							<text class="o" transform="translate(122.883 15.366)">
								<tspan x="0" y="0">2020-05-16</tspan>
							</text>
							<text class="p" transform="translate(232.883 16.366)">
								<tspan x="0" y="0">AB</tspan>
							</text>
							<text class="o" transform="translate(341.883 15.366)">
								<tspan x="0" y="0">42112</tspan>
							</text>
							<text class="o" transform="translate(452.883 15.366)">
								<tspan x="0" y="0">42661</tspan>
							</text>
							<text class="o" transform="translate(562.883 15.366)">
								<tspan x="0" y="0">549 miles</tspan>
							</text>
							<text class="o" transform="translate(672.883 15.366)">
								<tspan x="0" y="0">0 miles</tspan>
							</text>
						</g>
					</g>
					<g transform="translate(10558.388 -11846.03)">
						<g transform="translate(0 0)">
							<rect class="e" width="108" height="25" transform="translate(-0.117 0.031)"/>
							<rect class="e" width="109" height="25" transform="translate(109.883 0.031)"/>
							<rect class="e" width="109" height="25" transform="translate(219.883 0.031)"/>
							<rect class="e" width="109" height="25" transform="translate(329.883 0.031)"/>
							<rect class="e" width="109" height="25" transform="translate(439.883 0.031)"/>
							<rect class="e" width="109" height="25" transform="translate(549.883 0.031)"/>
							<rect class="e" width="108" height="25" transform="translate(660.883 0.031)"/>
							<text class="o" transform="translate(12.883 16.031)">
								<tspan x="0" y="0">V101</tspan>
							</text>
							<text class="o" transform="translate(122.883 16.031)">
								<tspan x="0" y="0">2020-05-16</tspan>
							</text>
							<text class="p" transform="translate(232.883 17.031)">
								<tspan x="0" y="0">AB</tspan>
							</text>
							<text class="o" transform="translate(341.883 16.031)">
								<tspan x="0" y="0">42112</tspan>
							</text>
							<text class="o" transform="translate(452.883 16.031)">
								<tspan x="0" y="0">42661</tspan>
							</text>
							<text class="o" transform="translate(562.883 16.031)">
								<tspan x="0" y="0">549 miles</tspan>
							</text>
							<text class="o" transform="translate(672.883 16.031)">
								<tspan x="0" y="0">0 miles</tspan>
							</text>
						</g>
						<g transform="translate(0 27.347)">
							<rect class="a" width="108" height="25" transform="translate(-0.117 -0.316)"/>
							<rect class="a" width="109" height="25" transform="translate(109.883 -0.316)"/>
							<rect class="a" width="109" height="25" transform="translate(219.883 -0.316)"/>
							<rect class="a" width="109" height="25" transform="translate(329.883 -0.316)"/>
							<rect class="a" width="109" height="25" transform="translate(439.883 -0.316)"/>
							<rect class="a" width="109" height="25" transform="translate(549.883 -0.316)"/>
							<rect class="a" width="108" height="25" transform="translate(660.883 -0.316)"/>
							<text class="o" transform="translate(12.883 14.684)">
								<tspan x="0" y="0">V101</tspan>
							</text>
							<text class="o" transform="translate(122.883 14.684)">
								<tspan x="0" y="0">2020-05-16</tspan>
							</text>
							<text class="p" transform="translate(232.883 15.684)">
								<tspan x="0" y="0">AB</tspan>
							</text>
							<text class="o" transform="translate(341.883 14.684)">
								<tspan x="0" y="0">42112</tspan>
							</text>
							<text class="o" transform="translate(452.883 14.684)">
								<tspan x="0" y="0">42661</tspan>
							</text>
							<text class="o" transform="translate(562.883 14.684)">
								<tspan x="0" y="0">549 miles</tspan>
							</text>
							<text class="o" transform="translate(672.883 14.684)">
								<tspan x="0" y="0">0 miles</tspan>
							</text>
						</g>
					</g>
					<g transform="translate(10558.388 -11792.349)">
						<g transform="translate(0 0)">
							<rect class="e" width="108" height="25" transform="translate(-0.117 0.35)"/>
							<rect class="e" width="109" height="25" transform="translate(109.883 0.35)"/>
							<rect class="e" width="109" height="25" transform="translate(219.883 0.35)"/>
							<rect class="e" width="109" height="25" transform="translate(329.883 0.35)"/>
							<rect class="e" width="109" height="25" transform="translate(439.883 0.35)"/>
							<rect class="e" width="109" height="25" transform="translate(549.883 0.35)"/>
							<rect class="e" width="108" height="25" transform="translate(660.883 0.35)"/>
							<text class="o" transform="translate(12.883 16.35)">
								<tspan x="0" y="0">V101</tspan>
							</text>
							<text class="o" transform="translate(122.883 16.35)">
								<tspan x="0" y="0">2020-05-16</tspan>
							</text>
							<text class="p" transform="translate(232.883 17.35)">
								<tspan x="0" y="0">AB</tspan>
							</text>
							<text class="o" transform="translate(341.883 16.35)">
								<tspan x="0" y="0">42112</tspan>
							</text>
							<text class="o" transform="translate(452.883 16.35)">
								<tspan x="0" y="0">42661</tspan>
							</text>
							<text class="o" transform="translate(562.883 16.35)">
								<tspan x="0" y="0">549 miles</tspan>
							</text>
							<text class="o" transform="translate(672.883 16.35)">
								<tspan x="0" y="0">0 miles</tspan>
							</text>
						</g>
						<g transform="translate(0 26.334)">
							<rect class="a" width="108" height="26" transform="translate(-0.117 0.015)"/>
							<rect class="a" width="109" height="26" transform="translate(109.883 0.015)"/>
							<rect class="a" width="109" height="26" transform="translate(219.883 0.015)"/>
							<rect class="a" width="109" height="26" transform="translate(329.883 0.015)"/>
							<rect class="a" width="109" height="26" transform="translate(439.883 0.015)"/>
							<rect class="a" width="109" height="26" transform="translate(549.883 0.015)"/>
							<rect class="a" width="108" height="26" transform="translate(660.883 0.015)"/>
							<text class="o" transform="translate(12.883 17.015)">
								<tspan x="0" y="0">V101</tspan>
							</text>
							<text class="o" transform="translate(122.883 17.015)">
								<tspan x="0" y="0">2020-05-16</tspan>
							</text>
							<text class="p" transform="translate(232.883 18.015)">
								<tspan x="0" y="0">AB</tspan>
							</text>
							<text class="o" transform="translate(341.883 17.015)">
								<tspan x="0" y="0">42112</tspan>
							</text>
							<text class="o" transform="translate(452.883 17.015)">
								<tspan x="0" y="0">42661</tspan>
							</text>
							<text class="o" transform="translate(562.883 17.015)">
								<tspan x="0" y="0">549 miles</tspan>
							</text>
							<text class="o" transform="translate(672.883 17.015)">
								<tspan x="0" y="0">0 miles</tspan>
							</text>
						</g>
					</g>
					<g transform="translate(10558.388 -11738.667)">
						<g transform="translate(0 0)">
							<rect class="e" width="108" height="26" transform="translate(-0.117 -0.332)"/>
							<rect class="e" width="109" height="26" transform="translate(109.883 -0.332)"/>
							<rect class="e" width="109" height="26" transform="translate(219.883 -0.332)"/>
							<rect class="e" width="109" height="26" transform="translate(329.883 -0.332)"/>
							<rect class="e" width="109" height="26" transform="translate(439.883 -0.332)"/>
							<rect class="e" width="109" height="26" transform="translate(549.883 -0.332)"/>
							<rect class="e" width="108" height="26" transform="translate(660.883 -0.332)"/>
							<text class="o" transform="translate(12.883 14.668)">
								<tspan x="0" y="0">V101</tspan>
							</text>
							<text class="o" transform="translate(122.883 14.668)">
								<tspan x="0" y="0">2020-05-16</tspan>
							</text>
							<text class="p" transform="translate(232.883 15.668)">
								<tspan x="0" y="0">AB</tspan>
							</text>
							<text class="o" transform="translate(341.883 14.668)">
								<tspan x="0" y="0">42112</tspan>
							</text>
							<text class="o" transform="translate(452.883 14.668)">
								<tspan x="0" y="0">42661</tspan>
							</text>
							<text class="o" transform="translate(562.883 14.668)">
								<tspan x="0" y="0">549 miles</tspan>
							</text>
							<text class="o" transform="translate(672.883 14.668)">
								<tspan x="0" y="0">0 miles</tspan>
							</text>
						</g>
						<g transform="translate(0 26.334)">
							<rect class="a" width="108" height="26" transform="translate(-0.117 0.334)"/>
							<rect class="a" width="109" height="26" transform="translate(109.883 0.334)"/>
							<rect class="a" width="109" height="26" transform="translate(219.883 0.334)"/>
							<rect class="a" width="109" height="26" transform="translate(329.883 0.334)"/>
							<rect class="a" width="109" height="26" transform="translate(439.883 0.334)"/>
							<rect class="a" width="109" height="26" transform="translate(549.883 0.334)"/>
							<rect class="a" width="108" height="26" transform="translate(660.883 0.334)"/>
							<text class="o" transform="translate(12.883 16.334)">
								<tspan x="0" y="0">V101</tspan>
							</text>
							<text class="o" transform="translate(122.883 16.334)">
								<tspan x="0" y="0">2020-05-16</tspan>
							</text>
							<text class="p" transform="translate(232.883 17.334)">
								<tspan x="0" y="0">AB</tspan>
							</text>
							<text class="o" transform="translate(341.883 16.334)">
								<tspan x="0" y="0">42112</tspan>
							</text>
							<text class="o" transform="translate(452.883 16.334)">
								<tspan x="0" y="0">42661</tspan>
							</text>
							<text class="o" transform="translate(562.883 16.334)">
								<tspan x="0" y="0">549 miles</tspan>
							</text>
							<text class="o" transform="translate(672.883 16.334)">
								<tspan x="0" y="0">0 miles</tspan>
							</text>
						</g>
					</g>
				</g>
				<g transform="translate(-3 205)">
					<rect class="e" width="200" height="20" rx="10" transform="translate(11025 -12555)"/>
					<path class="g"
						  d="M9.837,8.624,7.9,6.682a.467.467,0,0,0-.331-.136H7.246a4.05,4.05,0,1,0-.7.7v.318a.467.467,0,0,0,.136.331L8.624,9.837a.466.466,0,0,0,.66,0l.551-.551A.47.47,0,0,0,9.837,8.624ZM4.052,6.545A2.493,2.493,0,1,1,6.545,4.052,2.492,2.492,0,0,1,4.052,6.545Z"
						  transform="translate(11206.155 -12550.351)"/>
					<text class="m" transform="translate(11036 -12543)">
						<tspan x="0" y="0">Search</tspan>
					</text>
				</g>
				<path class="q"
					  d="M18.053,13.026A5.026,5.026,0,1,1,13.026,8,5.026,5.026,0,0,1,18.053,13.026ZM13.161,9.662A2.625,2.625,0,0,0,10.8,10.954a.244.244,0,0,0,.055.33l.7.533a.243.243,0,0,0,.338-.043c.362-.459.61-.726,1.161-.726.414,0,.926.266.926.668,0,.3-.251.459-.659.689-.477.267-1.108.6-1.108,1.432v.081a.243.243,0,0,0,.243.243h1.135a.243.243,0,0,0,.243-.243v-.027c0-.577,1.686-.6,1.686-2.162A2.312,2.312,0,0,0,13.161,9.662Zm-.135,5.026a.932.932,0,1,0,.932.932A.933.933,0,0,0,13.026,14.688Z"
					  transform="translate(11223.974 -12353.026)"/>
			</g>
		</g>
	</g>
</svg>
