<svg id="ewqu8ddhfvbn1" xmlns="http://www.w3.org/2000/svg" xmlns:xlink="http://www.w3.org/1999/xlink" viewBox="0 0 100 150" shape-rendering="geometricPrecision" text-rendering="geometricPrecision"><style><![CDATA[#ewqu8ddhfvbn2_ts {animation: ewqu8ddhfvbn2_ts__ts 1000ms linear 1 normal forwards}@keyframes ewqu8ddhfvbn2_ts__ts { 0% {transform: translate(50px,75px) scale(0.583271,0.583271)} 50% {transform: translate(50px,75px) scale(1,1)} 100% {transform: translate(50px,75px) scale(1,1)} }#ewqu8ddhfvbn8_tr {animation: ewqu8ddhfvbn8_tr__tr 1000ms linear 1 normal forwards}@keyframes ewqu8ddhfvbn8_tr__tr { 0% {transform: translate(42.009805px,45.739546px) rotate(-18.613609deg)} 100% {transform: translate(42.009805px,45.739546px) rotate(0deg)} }#ewqu8ddhfvbn12_tr {animation: ewqu8ddhfvbn12_tr__tr 1000ms linear 1 normal forwards}@keyframes ewqu8ddhfvbn12_tr__tr { 0% {transform: translate(38.909269px,48.236013px) rotate(-22.855476deg)} 100% {transform: translate(38.909269px,48.236013px) rotate(0deg)} }]]></style><g id="ewqu8ddhfvbn2_ts" transform="translate(50,75) scale(0.583271,0.583271)"><g id="ewqu8ddhfvbn2" transform="translate(-35.410156,-42.626953)"><g id="ewqu8ddhfvbn3"><path id="ewqu8ddhfvbn4" d="M1036.976000,262.687000L1028.344000,257.703000L1028.564000,257.825000L1028.789000,257.947000L1029.017000,258.062000L1029.247000,258.172000L1029.476000,258.283000L1029.710000,258.383000L1029.949000,258.483000L1030.189000,258.576000L1030.433000,258.664000L1030.677000,258.744000L1030.924000,258.821000L1031.174000,258.896000L1031.423000,258.964000L1031.678000,259.025000L1031.932000,259.081000L1032.193000,259.136000L1032.453000,259.184000L1032.716000,259.229000L1032.981000,259.267000L1033.248000,259.301000L1033.516000,259.331000L1033.789000,259.354000L1034.062000,259.373000L1034.338000,259.388000L1034.613000,259.395000L1034.893000,259.400000L1035.173000,259.400000L1035.457000,259.393000L1035.742000,259.383000L1036.028000,259.365000L1036.317000,259.344000L1036.607000,259.317000L1036.889000,259.287000L1037.174000,259.251000L1037.459000,259.211000L1037.744000,259.169000L1038.034000,259.119000L1038.324000,259.064000L1038.613000,259.009000L1038.913000,258.943000L1039.207000,258.876000L1039.507000,258.801000L1039.807000,258.724000L1040.107000,258.639000L1040.407000,258.552000L1040.712000,258.459000L1041.012000,258.359000L1041.312000,258.259000L1041.617000,258.149000L1041.925000,258.038000L1042.230000,257.916000L1042.540000,257.794000L1042.851000,257.666000L1043.164000,257.534000L1043.475000,257.396000L1043.790000,257.252000L1044.105000,257.105000L1044.422000,256.952000L1044.740000,256.792000L1045.058000,256.630000L1045.378000,256.460000L1045.700000,256.288000L1046.022000,256.108000L1046.344000,255.925000L1046.667000,255.737000L1046.988000,255.544000L1047.308000,255.344000L1047.628000,255.144000L1047.948000,254.944000L1048.266000,254.734000L1048.583000,254.522000L1048.898000,254.307000L1049.212000,254.087000L1049.525000,253.862000L1049.836000,253.635000L1050.148000,253.406000L1050.459000,253.170000L1050.759000,252.934000L1051.068000,252.690000L1051.373000,252.446000L1051.673000,252.202000L1051.978000,251.950000L1052.278000,251.695000L1052.578000,251.435000L1052.878000,251.175000L1053.178000,250.907000L1053.478000,250.641000L1053.773000,250.369000L1054.065000,250.097000L1054.356000,249.821000L1054.647000,249.539000L1054.935000,249.257000L1055.222000,248.970000L1055.507000,248.680000L1055.789000,248.387000L1056.071000,248.093000L1056.361000,247.783000L1056.652000,247.471000L1056.939000,247.156000L1057.223000,246.839000L1057.505000,246.517000L1057.785000,246.195000L1058.065000,245.868000L1058.341000,245.537000L1058.616000,245.206000L1058.889000,244.871000L1059.161000,244.533000L1059.431000,244.193000L1059.695000,243.850000L1059.960000,243.506000L1060.222000,243.159000L1060.484000,242.812000L1060.742000,242.459000L1060.996000,242.105000L1061.251000,241.749000L1061.501000,241.392000L1061.750000,241.030000L1061.998000,240.668000L1062.242000,240.302000L1062.486000,239.936000L1062.726000,239.570000L1062.960000,239.197000L1063.195000,238.828000L1063.427000,238.453000L1063.657000,238.078000L1063.881000,237.700000L1064.106000,237.321000L1064.326000,236.942000L1064.544000,236.559000L1064.764000,236.177000L1064.975000,235.792000L1065.186000,235.406000L1065.392000,235.021000L1065.597000,234.635000L1065.797000,234.243000L1065.997000,233.854000L1066.197000,233.461000L1066.390000,233.066000L1066.581000,232.671000L1066.768000,232.277000L1066.951000,231.877000L1067.134000,231.477000L1067.311000,231.077000L1067.487000,230.677000L1067.659000,230.277000L1067.829000,229.877000L1067.994000,229.477000L1068.159000,229.077000L1068.317000,228.677000L1068.474000,228.271000L1068.626000,227.871000L1068.776000,227.471000L1068.924000,227.071000L1069.066000,226.665000L1069.206000,226.265000L1069.344000,225.858000L1069.476000,225.458000L1069.605000,225.058000L1069.727000,224.651000L1069.849000,224.244000L1069.964000,223.854000L1070.075000,223.462000L1070.185000,223.070000L1070.290000,222.678000L1070.390000,222.288000L1070.490000,221.896000L1070.584000,221.506000L1070.674000,221.114000L1070.762000,220.724000L1070.846000,220.334000L1070.926000,219.941000L1071.004000,219.552000L1071.079000,219.166000L1071.149000,218.776000L1071.217000,218.386000L1071.278000,218L1071.339000,217.615000L1071.394000,217.230000L1071.446000,216.844000L1071.493000,216.459000L1071.538000,216.073000L1071.578000,215.688000L1071.615000,215.305000L1071.648000,214.923000L1071.679000,214.541000L1071.703000,214.161000L1071.726000,213.782000L1071.744000,213.402000L1071.756000,213.025000L1071.766000,212.650000L1071.773000,212.273000L1071.773000,211.500000L1071.766000,211.134000L1071.756000,210.768000L1071.744000,210.406000L1071.726000,210.049000L1071.703000,209.694000L1071.679000,209.344000L1071.648000,208.997000L1071.615000,208.652000L1071.578000,208.312000L1071.538000,207.976000L1071.493000,207.645000L1071.446000,207.314000L1071.394000,206.989000L1071.339000,206.667000L1071.278000,206.348000L1071.217000,206.033000L1071.149000,205.721000L1071.079000,205.416000L1071.004000,205.116000L1070.926000,204.816000L1070.846000,204.516000L1070.762000,204.223000L1070.674000,203.934000L1070.584000,203.649000L1070.490000,203.367000L1070.390000,203.091000L1070.290000,202.815000L1070.185000,202.543000L1070.075000,202.278000L1069.964000,202.016000L1069.849000,201.756000L1069.727000,201.490000L1069.605000,201.231000L1069.476000,200.974000L1069.344000,200.721000L1069.206000,200.477000L1069.066000,200.233000L1068.924000,199.993000L1068.776000,199.757000L1068.626000,199.525000L1068.474000,199.297000L1068.317000,199.076000L1068.159000,198.856000L1067.994000,198.644000L1067.829000,198.434000L1067.659000,198.227000L1067.487000,198.027000L1067.311000,197.827000L1067.134000,197.635000L1066.951000,197.447000L1066.768000,197.264000L1066.581000,197.087000L1066.390000,196.912000L1066.197000,196.740000L1065.997000,196.574000L1065.797000,196.414000L1065.597000,196.257000L1065.392000,196.105000L1065.186000,195.957000L1064.975000,195.812000L1064.764000,195.674000L1064.544000,195.540000L1064.326000,195.413000L1072.957000,200.397000L1073.178000,200.526000L1073.392000,200.659000L1073.607000,200.799000L1073.816000,200.942000L1074.024000,201.089000L1074.224000,201.242000L1074.424000,201.400000L1074.624000,201.559000L1074.824000,201.724000L1075.019000,201.894000L1075.209000,202.068000L1075.397000,202.248000L1075.580000,202.431000L1075.763000,202.619000L1075.941000,202.812000L1076.116000,203.012000L1076.288000,203.212000L1076.458000,203.412000L1076.624000,203.622000L1076.786000,203.837000L1076.945000,204.057000L1077.104000,204.278000L1077.256000,204.506000L1077.405000,204.738000L1077.552000,204.973000L1077.695000,205.213000L1077.833000,205.457000L1077.971000,205.701000L1078.104000,205.954000L1078.234000,206.212000L1078.359000,206.471000L1078.481000,206.736000L1078.596000,206.996000L1078.706000,207.258000L1078.816000,207.526000L1078.921000,207.796000L1079.021000,208.072000L1079.121000,208.348000L1079.221000,208.630000L1079.311000,208.915000L1079.398000,209.205000L1079.483000,209.497000L1079.562000,209.797000L1079.640000,210.097000L1079.715000,210.397000L1079.785000,210.702000L1079.850000,211.015000L1079.915000,211.330000L1079.970000,211.650000L1080.025000,211.972000L1080.075000,212.297000L1080.125000,212.628000L1080.168000,212.963000L1080.210000,213.298000L1080.248000,213.637000L1080.279000,213.982000L1080.310000,214.329000L1080.335000,214.679000L1080.357000,215.034000L1080.375000,215.391000L1080.387000,215.753000L1080.398000,216.119000L1080.405000,216.485000L1080.405000,217.228000L1080.398000,217.603000L1080.387000,217.980000L1080.375000,218.357000L1080.357000,218.734000L1080.335000,219.114000L1080.310000,219.493000L1080.279000,219.876000L1080.248000,220.258000L1080.210000,220.641000L1080.168000,221.026000L1080.125000,221.411000L1080.075000,221.797000L1080.025000,222.182000L1079.970000,222.568000L1079.915000,222.953000L1079.850000,223.343000L1079.785000,223.728000L1079.715000,224.118000L1079.640000,224.508000L1079.562000,224.898000L1079.483000,225.288000L1079.398000,225.678000L1079.311000,226.068000L1079.221000,226.460000L1079.121000,226.850000L1079.021000,227.242000L1078.921000,227.634000L1078.816000,228.026000L1078.706000,228.417000L1078.596000,228.809000L1078.481000,229.201000L1078.359000,229.601000L1078.234000,230.008000L1078.104000,230.408000L1077.971000,230.815000L1077.833000,231.215000L1077.695000,231.620000L1077.552000,232.020000L1077.405000,232.420000L1077.256000,232.820000L1077.104000,233.220000L1076.945000,233.620000L1076.786000,234.020000L1076.624000,234.420000L1076.458000,234.820000L1076.288000,235.220000L1076.116000,235.620000L1075.941000,236.020000L1075.763000,236.420000L1075.580000,236.820000L1075.397000,237.220000L1075.209000,237.620000L1075.019000,238.015000L1074.824000,238.408000L1074.624000,238.799000L1074.424000,239.191000L1074.224000,239.581000L1074.024000,239.966000L1073.816000,240.356000L1073.607000,240.742000L1073.392000,241.128000L1073.178000,241.514000L1072.957000,241.894000L1072.737000,242.276000L1072.512000,242.654000L1072.284000,243.031000L1072.056000,243.406000L1071.823000,243.780000L1071.589000,244.152000L1071.354000,244.522000L1071.114000,244.888000L1070.870000,245.254000L1070.626000,245.620000L1070.382000,245.982000L1070.131000,246.342000L1069.882000,246.699000L1069.627000,247.057000L1069.372000,247.409000L1069.113000,247.761000L1068.853000,248.111000L1068.590000,248.455000L1068.326000,248.799000L1068.058000,249.142000L1067.791000,249.481000L1067.519000,249.819000L1067.247000,250.154000L1066.971000,250.485000L1066.696000,250.812000L1066.416000,251.140000L1066.137000,251.465000L1065.852000,251.785000L1065.567000,252.103000L1065.282000,252.420000L1064.992000,252.732000L1064.704000,253.032000L1064.420000,253.327000L1064.138000,253.620000L1063.851000,253.910000L1063.566000,254.196000L1063.276000,254.482000L1062.986000,254.761000L1062.696000,255.037000L1062.402000,255.312000L1062.102000,255.582000L1061.808000,255.852000L1061.508000,256.117000L1061.208000,256.379000L1060.908000,256.636000L1060.608000,256.891000L1060.308000,257.144000L1060.008000,257.388000L1059.703000,257.632000L1059.403000,257.876000L1059.098000,258.113000L1058.789000,258.348000L1058.476000,258.580000L1058.164000,258.808000L1057.852000,259.028000L1057.537000,259.248000L1057.221000,259.469000L1056.903000,259.680000L1056.586000,259.887000L1056.267000,260.087000L1055.947000,260.287000L1055.627000,260.487000L1055.304000,260.679000L1054.983000,260.870000L1054.658000,261.053000L1054.338000,261.232000L1054.017000,261.404000L1053.697000,261.574000L1053.380000,261.736000L1053.060000,261.896000L1052.745000,262.049000L1052.431000,262.199000L1052.116000,262.341000L1051.801000,262.479000L1051.492000,262.611000L1051.179000,262.742000L1050.869000,262.864000L1050.564000,262.982000L1050.264000,263.092000L1049.959000,263.199000L1049.659000,263.304000L1049.359000,263.404000L1049.059000,263.497000L1048.759000,263.586000L1048.459000,263.669000L1048.159000,263.745000L1047.859000,263.820000L1047.567000,263.888000L1047.272000,263.954000L1046.982000,264.009000L1046.692000,264.064000L1046.402000,264.114000L1046.115000,264.159000L1045.830000,264.199000L1045.548000,264.235000L1045.266000,264.265000L1044.976000,264.290000L1044.686000,264.313000L1044.399000,264.328000L1044.117000,264.337000L1043.832000,264.345000L1043.272000,264.345000L1042.996000,264.335000L1042.721000,264.320000L1042.449000,264.302000L1042.177000,264.276000L1041.906000,264.247000L1041.642000,264.214000L1041.377000,264.173000L1041.115000,264.131000L1040.852000,264.081000L1040.595000,264.029000L1040.341000,263.968000L1040.087000,263.907000L1039.836000,263.839000L1039.586000,263.767000L1039.338000,263.689000L1039.094000,263.608000L1038.850000,263.519000L1038.610000,263.427000L1038.374000,263.327000L1038.139000,263.227000L1037.907000,263.122000L1037.680000,263.012000L1037.452000,262.897000L1037.228000,262.775000Z" transform="matrix(1 0 0 1 -1015.24102783203125 -186.41400146484375)" fill="rgb(136,33,38)" fill-rule="evenodd" stroke="none" stroke-width="1"/><path id="ewqu8ddhfvbn5" d="M1050.707000,203.649000C1036.837000,211.657000,1025.588000,231.136000,1025.588000,247.149000C1025.588000,263.162000,1036.836000,269.662000,1050.707000,261.649000C1064.578000,253.636000,1075.826000,234.159000,1075.826000,218.143000C1075.826000,202.127000,1064.579000,195.642000,1050.707000,203.649000Z" transform="matrix(1 0 0 1 -1013.69897460937500 -189.10499572753906)" fill="rgb(249,251,255)" fill-rule="evenodd" stroke="none" stroke-width="1"/><path id="ewqu8ddhfvbn6" d="M1029.686000,179.223000L1030.486000,178.770000L1031.286000,178.343000L1032.079000,177.943000L1032.866000,177.571000L1033.645000,177.224000L1034.420000,176.902000L1035.191000,176.602000L1035.953000,176.330000L1036.707000,176.086000L1037.456000,175.865000L1038.199000,175.665000L1038.931000,175.493000L1039.658000,175.345000L1040.374000,175.223000L1041.086000,175.123000L1041.786000,175.048000L1042.481000,174.998000L1043.166000,174.973000L1043.841000,174.973000L1044.506000,174.994000L1045.163000,175.039000L1045.807000,175.109000L1046.445000,175.198000L1047.070000,175.313000L1047.685000,175.451000L1048.291000,175.610000L1048.883000,175.793000L1049.465000,175.993000L1050.036000,176.221000L1050.593000,176.471000L1051.142000,176.740000L1059.775000,181.728000L1059.226000,181.456000L1058.669000,181.207000L1058.099000,180.979000L1057.517000,180.774000L1056.924000,180.591000L1056.318000,180.432000L1055.702000,180.294000L1055.079000,180.180000L1054.442000,180.089000L1053.796000,180.023000L1053.141000,179.978000L1052.477000,179.955000L1051.799000,179.955000L1051.117000,179.982000L1050.423000,180.032000L1049.723000,180.105000L1049.013000,180.205000L1048.297000,180.330000L1047.570000,180.474000L1046.838000,180.647000L1046.099000,180.847000L1045.349000,181.068000L1044.595000,181.312000L1043.834000,181.582000L1043.062000,181.882000L1042.290000,182.205000L1041.510000,182.552000L1040.723000,182.926000L1039.930000,183.326000L1039.130000,183.753000L1038.330000,184.204000L1037.530000,184.679000L1036.730000,185.179000L1035.937000,185.694000L1035.153000,186.229000L1034.371000,186.783000L1033.597000,187.355000L1032.826000,187.945000L1032.064000,188.555000L1031.309000,189.179000L1030.560000,189.823000L1029.821000,190.484000L1029.086000,191.159000L1028.359000,191.851000L1027.643000,192.558000L1026.933000,193.280000L1026.233000,194.017000L1025.539000,194.767000L1024.858000,195.532000L1024.180000,196.309000L1023.516000,197.099000L1022.862000,197.899000L1022.216000,198.712000L1021.579000,199.539000L1020.955000,200.376000L1020.340000,201.223000L1019.734000,202.080000L1019.142000,202.946000L1018.560000,203.824000L1017.990000,204.709000L1017.433000,205.604000L1016.884000,206.504000L1016.352000,207.414000L1015.831000,208.329000L1015.324000,209.254000L1014.824000,210.183000L1014.342000,211.119000L1013.872000,212.061000L1013.418000,213.008000L1012.977000,213.960000L1012.550000,214.917000L1012.140000,215.877000L1011.740000,216.839000L1011.358000,217.806000L1010.992000,218.776000L1010.642000,219.747000L1010.304000,220.719000L1009.984000,221.695000L1009.684000,222.671000L1009.396000,223.647000L1009.127000,224.623000L1008.874000,225.598000L1008.639000,226.574000L1008.419000,227.550000L1008.219000,228.522000L1008.036000,229.492000L1007.870000,230.458000L1007.725000,231.422000L1007.597000,232.384000L1007.487000,233.341000L1007.397000,234.292000L1007.329000,235.241000L1007.277000,236.186000L1007.246000,237.123000L1007.235000,238.054000L1007.246000,238.976000L1007.277000,239.876000L1007.329000,240.763000L1007.397000,241.630000L1007.487000,242.480000L1007.597000,243.312000L1007.725000,244.126000L1007.870000,244.926000L1008.036000,245.703000L1008.219000,246.463000L1008.419000,247.203000L1008.639000,247.924000L1008.874000,248.624000L1009.127000,249.306000L1009.396000,249.971000L1009.684000,250.616000L1009.984000,251.239000L1010.304000,251.845000L1010.642000,252.432000L1010.992000,252.997000L1011.358000,253.546000L1011.740000,254.070000L1012.140000,254.575000L1012.550000,255.060000L1012.977000,255.522000L1013.418000,255.967000L1013.872000,256.390000L1014.342000,256.790000L1014.821000,257.169000L1015.321000,257.529000L1015.828000,257.867000L1007.194000,252.879000L1006.687000,252.542000L1006.187000,252.184000L1005.705000,251.805000L1005.235000,251.405000L1004.781000,250.986000L1004.340000,250.540000L1003.913000,250.078000L1003.503000,249.593000L1003.103000,249.088000L1002.721000,248.560000L1002.355000,248.016000L1002.005000,247.451000L1001.669000,246.864000L1001.351000,246.258000L1001.051000,245.634000L1000.764000,244.989000L1000.494000,244.324000L1000.241000,243.640000L1000.007000,242.940000L999.786000,242.221000L999.586000,241.478000L999.403000,240.721000L999.238000,239.941000L999.092000,239.148000L998.965000,238.333000L998.855000,237.501000L998.768000,236.651000L998.698000,235.782000L998.648000,234.897000L998.615000,233.997000L998.605000,233.078000L998.615000,232.146000L998.648000,231.209000L998.698000,230.267000L998.768000,229.317000L998.855000,228.365000L998.965000,227.405000L999.092000,226.446000L999.238000,225.482000L999.403000,224.515000L999.586000,223.543000L999.786000,222.571000L1000.007000,221.599000L1000.241000,220.623000L1000.494000,219.647000L1000.764000,218.671000L1001.051000,217.695000L1001.351000,216.720000L1001.669000,215.744000L1002.005000,214.772000L1002.355000,213.801000L1002.721000,212.831000L1003.103000,211.865000L1003.503000,210.902000L1003.913000,209.941000L1004.340000,208.986000L1004.781000,208.034000L1005.235000,207.087000L1005.705000,206.145000L1006.187000,205.208000L1006.687000,204.279000L1007.194000,203.354000L1007.716000,202.439000L1008.249000,201.529000L1008.798000,200.629000L1009.356000,199.734000L1009.925000,198.846000L1010.508000,197.971000L1011.100000,197.105000L1011.706000,196.246000L1012.321000,195.399000L1012.949000,194.561000L1013.584000,193.734000L1014.231000,192.920000L1014.885000,192.120000L1015.552000,191.331000L1016.226000,190.553000L1016.912000,189.791000L1017.603000,189.038000L1018.303000,188.306000L1019.012000,187.584000L1019.729000,186.877000L1020.456000,186.184000L1021.191000,185.509000L1021.930000,184.848000L1022.680000,184.203000L1023.434000,183.579000L1024.196000,182.969000L1024.967000,182.377000L1025.741000,181.805000L1026.523000,181.256000L1027.309000,180.720000L1028.099000,180.203000L1028.899000,179.703000Z" transform="matrix(1 0 0 1 -998.59301757812500 -174.98300170898438)" fill="rgb(230,85,92)" fill-rule="evenodd" stroke="none" stroke-width="1"/><path id="ewqu8ddhfvbn7" d="M1027.314000,213.736000C1032.938000,203.992000,1040.714000,195.489000,1049.295000,190.536000C1057.876000,185.583000,1065.649000,185.112000,1071.273000,188.360000C1076.897000,191.608000,1080.379000,198.573000,1080.379000,208.484000C1080.379000,218.395000,1076.899000,229.378000,1071.273000,239.122000C1065.647000,248.866000,1057.873000,257.370000,1049.295000,262.327000C1040.717000,267.284000,1032.938000,267.751000,1027.314000,264.503000C1021.690000,261.255000,1018.207000,254.292000,1018.207000,244.376000C1018.207000,234.460000,1021.687000,223.481000,1027.314000,213.736000ZM1067.280000,195.271000C1064.769165,193.872066,1061.878846,193.306888,1059.026000,193.657000C1055.578414,194.089521,1052.261769,195.248352,1049.295000,197.057000C1045.692986,199.191797,1042.415644,201.831990,1039.563000,204.897000C1033.204263,211.697063,1028.488849,219.864198,1025.779000,228.771000C1024.548728,232.773184,1023.899437,236.931271,1023.851000,241.118000C1023.770005,244.591402,1024.427151,248.042440,1025.779000,251.243000C1028.009513,256.738892,1033.688179,260.017391,1039.563000,259.201000C1043.010723,258.767727,1046.327540,257.608954,1049.295000,255.801000C1052.896783,253.665500,1056.173790,251.024632,1059.026000,247.959000C1065.378076,241.156432,1070.091714,232.992304,1072.807000,224.090000C1074.036619,220.086752,1074.684575,215.927577,1074.731000,211.740000C1074.813513,208.267189,1074.157720,204.816435,1072.807000,201.616000C1071.683770,198.967757,1069.747462,196.745328,1067.278000,195.270000Z" transform="matrix(1 0 0 1 -1009.56896972656250 -181.30900573730469)" fill="rgb(198,56,63)" fill-rule="evenodd" stroke="none" stroke-width="1"/></g><g id="ewqu8ddhfvbn8_tr" transform="translate(42.009805,45.739546) rotate(-18.613609)"><g id="ewqu8ddhfvbn8" transform="translate(-17.669805,-7.339544)"><path id="ewqu8ddhfvbn9" d="M1054.727000,267.450000L1053.862000,266.950000L1056.108000,262.177000L1056.972000,262.677000Z" transform="matrix(1 0 0 1 -1053.86206054687500 -262.17800903320313)" fill="rgb(61,79,155)" fill-rule="evenodd" stroke="none" stroke-width="1"/><path id="ewqu8ddhfvbn10" d="M1059.826000,262.677000L1058.961000,262.177000L1074.971000,266.744000L1075.835000,267.244000Z" transform="matrix(1 0 0 1 -1056.71496582031250 -262.17800903320313)" fill="rgb(74,96,188)" fill-rule="evenodd" stroke="none" stroke-width="1"/><path id="ewqu8ddhfvbn11" d="M1074.082000,267.880000L1071.836000,272.649000L1055.828000,268.085000L1058.074000,263.312000Z" transform="matrix(1 0 0 1 -1054.96203613281250 -262.81298828125000)" fill="rgb(52,64,132)" fill-rule="evenodd" stroke="none" stroke-width="1"/></g></g><g id="ewqu8ddhfvbn12_tr" transform="translate(38.909269,48.236013) rotate(-22.855476)"><g id="ewqu8ddhfvbn12" transform="translate(-38.909269,-48.236013)"><path id="ewqu8ddhfvbn13" d="M1079.236000,251.414000L1078.571000,251.031000L1097.144000,218.864000L1097.809000,219.246000Z" transform="matrix(1 0 0 1 -1043.34899902343750 -199.53900146484375)" fill="rgb(74,96,188)" fill-rule="evenodd" stroke="none" stroke-width="1"/><path id="ewqu8ddhfvbn14" d="M1081.406000,252.665000L1080.076000,251.900000L1098.649000,219.733000L1099.975000,220.501000L1096.639000,226.277000Z" transform="matrix(1 0 0 1 -1044.18994140625000 -200.02499389648438)" fill="rgb(61,79,155)" fill-rule="evenodd" stroke="none" stroke-width="1"/></g></g></g></g></svg>
