<svg xmlns="http://www.w3.org/2000/svg" width="89.732" height="14.997" viewBox="0 0 89.732 14.997"><path d="M7.141,7.837A2.155,2.155,0,0,0,5.014,6.461,1.724,1.724,0,0,0,3.053,8.129c0,.417.146,1.147,1.5,1.69l1.4.563c2.566,1.043,3.275,2.5,3.275,4.088a4.287,4.287,0,0,1-4.484,4.464,4.07,4.07,0,0,1-3.275-1.4A4.5,4.5,0,0,1,.3,14.825l2.107-.459a3,3,0,0,0,.584,1.773,2.194,2.194,0,0,0,1.815.834A2.235,2.235,0,0,0,7.1,14.637a2.619,2.619,0,0,0-2-2.378L3.762,11.7C2.615,11.216.926,10.257.926,8.171A3.756,3.756,0,0,1,4.993,4.5a4.1,4.1,0,0,1,2.795.939,4.739,4.739,0,0,1,1.064,1.4Z" transform="translate(-0.3 -3.937)"/><path d="M67.219,7.7v11.91H65.091V7.7H61.9v-2h8.51v2Z" transform="translate(-49.051 -4.887)"/><path d="M134.376,7.7h-5.548v3.525h5.381v2h-5.381v4.38h5.548v2H126.7V5.7h7.676Z" transform="translate(-100.335 -4.887)"/><path d="M190.725,0,183.8,14.726h2.294l4.547-10.075,4.38,10.075h2.294Z" transform="translate(-145.463)"/><path d="M274.428,5.7V17.61h4.088v2H272.3V5.7Z" transform="translate(-215.566 -4.887)"/><path d="M322.019,7.7v11.91h-2.128V7.7H316.7v-2h8.51v2Z" transform="translate(-250.705 -4.887)"/><path d="M383.628,11.207h5.965V5.7h2.128V19.612h-2.128v-6.4h-5.965v6.4H381.5V5.7h2.128Z" transform="translate(-301.989 -4.887)"/></svg>
