<svg xmlns="http://www.w3.org/2000/svg" width="258.038" height="200.414" viewBox="0 0 258.038 353.414">
	<defs>
		<style>.a{fill:#D4D9E8;}.b{fill:#D4D9E8;}</style>
	</defs>
	<path class="a"
		  d="M811.521,536.669c-5.227,5.661-20.045,22.978-20.005,23.053,0,0,42.194,25.01,44.649,25.307,2.84.344,6.464-1.193,9.751-4.757a278.374,278.374,0,0,0,37.443-49.64c12.308-20.516,20.629-40.732,25.135-60.349,4.5-19.817,6.932-44.636,6.931-74.461l0-61.451c-.009-3.814-1.559-6.321-3.969-7.129-.383-.128-42.25-24.5-42.25-24.5l-83.153,143.3c15.827,9.535,45.107,27.631,50.845,24.338l12.522-4.647C849.072,486.154,824.176,523.156,811.521,536.669Z"
		  transform="translate(-657.387 -302.142)"/>
	<path class="a"
		  d="M943.5,460.777c-5.227,5.661-20.045,22.978-20,23.053,0,0,42.194,25.01,44.648,25.307,2.84.344,6.465-1.193,9.751-4.757a278.4,278.4,0,0,0,37.444-49.641c12.307-20.515,20.628-40.731,25.135-60.349,4.5-19.817,6.932-44.637,6.932-74.462l0-61.45c-.009-3.814-1.558-6.321-3.969-7.129-.382-.128-42.25-24.5-42.25-24.5l-83.153,143.3c15.827,9.534,45.107,27.631,50.845,24.338l12.522-4.647C981.048,410.261,956.152,447.264,943.5,460.777Z"
		  transform="translate(-911.925 -155.77)"/>
	<path class="b"
		  d="M838.685,550.029c-5.227,5.662-7.607,14.072-5.317,18.786.038.077.077.154.117.229l8.5,15.715c2.411,4.441,8.4,3.554,13.522-2a278.366,278.366,0,0,0,37.444-49.64c12.307-20.515,20.627-40.731,25.134-60.348,4.5-19.817,6.933-44.637,6.932-74.462l0-61.45c-.017-6.616-4.664-9.3-10.4-6.006L846.479,370.18c-5.737,3.331-10.384,11.38-10.4,18.015l0,78.665c.016,6.616,4.664,9.3,10.4,6l32.591-18.815c-.346,20.419-4.506,39.033-12.133,55.649C860.7,523.106,851.34,536.516,838.685,550.029Z"
		  transform="translate(-710.108 -329.442)"/>
	<path class="b"
		  d="M978.288,397l32.764-18.915c-.345,20.419-4.508,39.033-12.133,55.648-6.241,13.413-15.6,26.824-28.257,40.337-5.228,5.664-7.608,14.076-5.316,18.789.037.077.076.152.116.227l8.5,15.512c2.411,4.442,8.4,3.556,13.522-2a292.642,292.642,0,0,0,37.27-49.34c12.309-20.717,20.8-41.031,25.309-60.65q6.759-29.122,6.757-74.163l0-61.452c-.018-6.615-4.665-9.3-10.4-6l-68.129,39.33c-5.738,3.332-10.385,11.381-10.4,18.015l0,78.665C967.9,397.61,972.55,400.293,978.288,397Z"
		  transform="translate(-964.474 -182.827)"/>
</svg>
